<mxfile host="app.diagrams.net" modified="2024-07-08T14:36:00.358Z" agent="Mozilla/5.0 (Windows NT 10.0; Win64; x64) AppleWebKit/537.36 (KHTML, like Gecko) Chrome/126.0.0.0 Safari/537.36 Edg/126.0.0.0" etag="YuSdOe_BBqZrmSfeLqA9" version="24.6.4" type="github">
  <diagram name="第 1 页" id="Or-38Bo2FWoxO7dC1YPg">
    <mxGraphModel dx="1742" dy="1111" grid="1" gridSize="10" guides="1" tooltips="1" connect="1" arrows="1" fold="1" page="1" pageScale="1" pageWidth="827" pageHeight="1169" math="0" shadow="0">
      <root>
        <mxCell id="0" />
        <mxCell id="1" parent="0" />
        <mxCell id="78SapdrL97S4BMzw8x5g-1" value="" style="rounded=0;whiteSpace=wrap;html=1;" vertex="1" parent="1">
          <mxGeometry x="60" y="280" width="120" height="60" as="geometry" />
        </mxCell>
        <mxCell id="78SapdrL97S4BMzw8x5g-4" value="" style="edgeStyle=orthogonalEdgeStyle;rounded=0;orthogonalLoop=1;jettySize=auto;html=1;" edge="1" parent="1" source="78SapdrL97S4BMzw8x5g-2" target="78SapdrL97S4BMzw8x5g-3">
          <mxGeometry relative="1" as="geometry" />
        </mxCell>
        <mxCell id="78SapdrL97S4BMzw8x5g-2" value="" style="rounded=1;whiteSpace=wrap;html=1;" vertex="1" parent="1">
          <mxGeometry x="180" y="280" width="220" height="230" as="geometry" />
        </mxCell>
        <mxCell id="78SapdrL97S4BMzw8x5g-6" value="" style="edgeStyle=orthogonalEdgeStyle;rounded=0;orthogonalLoop=1;jettySize=auto;html=1;" edge="1" parent="1" source="78SapdrL97S4BMzw8x5g-3" target="78SapdrL97S4BMzw8x5g-5">
          <mxGeometry relative="1" as="geometry" />
        </mxCell>
        <mxCell id="78SapdrL97S4BMzw8x5g-3" value="" style="rounded=1;whiteSpace=wrap;html=1;" vertex="1" parent="1">
          <mxGeometry x="480" y="280" width="220" height="230" as="geometry" />
        </mxCell>
        <mxCell id="78SapdrL97S4BMzw8x5g-8" value="" style="edgeStyle=orthogonalEdgeStyle;rounded=0;orthogonalLoop=1;jettySize=auto;html=1;" edge="1" parent="1" source="78SapdrL97S4BMzw8x5g-5" target="78SapdrL97S4BMzw8x5g-7">
          <mxGeometry relative="1" as="geometry" />
        </mxCell>
        <mxCell id="78SapdrL97S4BMzw8x5g-5" value="" style="ellipse;whiteSpace=wrap;html=1;rounded=1;" vertex="1" parent="1">
          <mxGeometry x="550" y="665" width="80" height="80" as="geometry" />
        </mxCell>
        <mxCell id="78SapdrL97S4BMzw8x5g-7" value="" style="ellipse;whiteSpace=wrap;html=1;rounded=1;" vertex="1" parent="1">
          <mxGeometry x="390" y="665" width="80" height="80" as="geometry" />
        </mxCell>
      </root>
    </mxGraphModel>
  </diagram>
</mxfile>
